<svg xmlns="http://www.w3.org/2000/svg" viewBox="0 0 520 520" width="520" height="520">
	<defs>
		<linearGradient id="grd1" gradientUnits="userSpaceOnUse"  x1="260" y1="57" x2="260" y2="357">
			<stop offset="0" stop-color="#ffffff"  />
			<stop offset="1" stop-color="#ffffff" stop-opacity="0" />
		</linearGradient>
	</defs>
	<style>
		tspan { white-space:pre }
		.shp0 { fill: #d6dbe0 } 
		.shp1 { fill: #ffffff;stroke: #000000;stroke-width: 12 } 
		.shp2 { fill: #90ee90 } 
		.shp3 { fill: none;stroke: #d6dbe0;stroke-width: 30 } 
		.shp4 { fill: none;stroke: url(#grd1);stroke-width: 30 } 
		.shp5 { fill: #000000 } 
	</style>
	<path id="Layer" class="shp0" d="M0,520h520v-520h-520z" />
	<path id="Layer" class="shp1" d="M0,520h520v-520h-520z" />
	<g id="Layer">
		<path id="Layer" class="shp2" d="M410,207c0,-82.84 -67.16,-150 -150,-150c-82.84,0 -150,67.16 -150,150c0,82.84 67.16,150 150,150c82.84,0 150,-67.16 150,-150z" />
	</g>
	<path id="Layer" class="shp3" d="M401.21,207c0,-77.99 -63.22,-141.21 -141.21,-141.21c-77.99,0 -141.21,63.22 -141.21,141.21c0,77.99 63.22,141.21 141.21,141.21c77.99,0 141.21,-63.22 141.21,-141.21z" />
	<path id="Layer" class="shp4" d="M401.21,207c0,-77.99 -63.22,-141.21 -141.21,-141.21c-77.99,0 -141.21,63.22 -141.21,141.21c0,77.99 63.22,141.21 141.21,141.21c77.99,0 141.21,-63.22 141.21,-141.21z" />
	<path id="Layer" class="shp5" d="M329.73,134.52h-33.28l-10.31,14.3l-47.81,55.55l9.84,-69.84h-31.41l-11.49,105.7l-7.26,45h30.94l4.69,-47.81l4.22,-29.53c10.47,20.78 24.92,46.72 43.36,77.81l3.05,1.88c11.25,-1.25 21.56,-3.05 30.94,-5.39l0.94,-3.52c-18.75,-25.94 -34.37,-49.92 -46.87,-71.95z" />
	<path id="Layer" class="shp5" d="M169,435.77l-9,8.34l-3.28,18.89h-13.73l11.86,-68.25h13.73l-5.25,30.09l6.98,-7.87l20.53,-22.22h17.91l-29.48,31.03l17.53,37.13l36.42,-68.16h12.7l12.98,68.25h-14.02l-2.16,-14.06h-23.81l-7.03,14.06h-30.7zM224.55,437.55h16.45l-3.84,-25.41zM265.8,463l11.86,-68.25l19.59,0.05c4.59,0.09 8.72,1.14 12.38,3.14c3.69,1.97 6.67,4.81 8.95,8.53c2.28,3.72 3.66,7.91 4.13,12.56c0.25,2.72 0.22,5.5 -0.09,8.34l-0.33,2.48c-1.37,10 -5.31,18.03 -11.81,24.09c-6.47,6.03 -14.33,9.05 -23.58,9.05zM289.42,406.14l-7.92,45.56l5.72,0.05c6.31,0 11.38,-2.31 15.19,-6.94c3.84,-4.62 6.05,-11.61 6.61,-20.95l0.09,-1.5c0.09,-5.16 -0.89,-9.11 -2.95,-11.86c-2.06,-2.75 -5.14,-4.19 -9.23,-4.31zM371.88,433.42h-26.16l-3.19,18.28h30.75l-1.97,11.3h-44.48l11.86,-68.25h44.39l-2.02,11.39h-30.61l-2.86,16.26h26.25z" />
</svg>