<svg width="520" height="520" viewBox="0 0 520 520" fill="none" xmlns="http://www.w3.org/2000/svg">
<rect width="520" height="520" fill="#D6DBE0"/>
<rect width="520" height="520" fill="white"/>
<g filter="url(#filter0_i)">
<path d="M410 240C410 157.157 342.843 90 260 90C177.157 90 110 157.157 110 240C110 322.843 177.157 390 260 390C342.843 390 410 322.843 410 240Z" fill="#90EE90"/>
</g>
<path d="M401.211 240C401.211 162.011 337.989 98.7891 260 98.7891C182.011 98.7891 118.789 162.011 118.789 240C118.789 317.989 182.011 381.211 260 381.211C337.989 381.211 401.211 317.989 401.211 240Z" stroke="#D6DBE0" stroke-width="30"/>
<path d="M401.211 240C401.211 162.011 337.989 98.7891 260 98.7891C182.011 98.7891 118.789 162.011 118.789 240C118.789 317.989 182.011 381.211 260 381.211C337.989 381.211 401.211 317.989 401.211 240Z" stroke="url(#paint0_linear)" stroke-width="30"/>
<path d="M269.258 239.707C281.758 261.738 297.383 285.722 316.133 311.66L315.195 315.176C305.82 317.52 295.508 319.317 284.258 320.566L281.211 318.691C262.773 287.597 248.321 261.66 237.852 240.879L233.633 270.41L228.945 318.223H198.008L205.273 273.223L216.758 167.52H248.164L238.32 237.363L286.133 181.816L296.445 167.52H329.727L269.258 239.707Z" fill="black"/>
<path d="M19.125 52.7871L15.75 55.916L14.5195 63H9.36914L13.8164 37.4062H18.9668L16.998 48.6914L19.6172 45.7383L27.3164 37.4062H34.0312L22.9746 49.043L29.5664 63H23.6953L19.125 52.7871ZM132.486 57.7266H123.557L120.92 63H115.242L128.918 37.4062H133.682L138.551 63H133.295L132.486 57.7266ZM125.666 53.4551H131.836L130.395 43.9277L125.666 53.4551ZM261.615 63L266.062 37.4062L273.41 37.4238C275.133 37.459 276.68 37.8516 278.051 38.6016C279.434 39.3398 280.553 40.4062 281.408 41.8008C282.264 43.1953 282.779 44.7656 282.955 46.5117C283.049 47.5312 283.037 48.5742 282.92 49.6406L282.797 50.5723C282.281 54.3223 280.805 57.334 278.367 59.6074C275.941 61.8691 272.994 63 269.525 63H261.615ZM270.475 41.6777L267.504 58.7637L269.648 58.7812C272.016 58.7812 273.914 57.9141 275.344 56.1797C276.785 54.4453 277.611 51.8262 277.822 48.3223L277.857 47.7598C277.893 45.8262 277.523 44.3438 276.75 43.3125C275.977 42.2812 274.822 41.7422 273.287 41.6953L270.475 41.6777ZM417.551 51.9082H407.742L406.547 58.7637H418.078L417.34 63H400.658L405.105 37.4062H421.752L420.996 41.6777H409.518L408.445 47.7773H418.289L417.551 51.9082Z" fill="#EB5757"/>
<path d="M40.4473 63.3516C38.7832 63.3398 37.3066 62.9355 36.0176 62.1387C34.7402 61.3301 33.7852 60.2285 33.1523 58.834C32.5195 57.4277 32.2734 55.8809 32.4141 54.1934L32.4668 53.4902C32.6426 51.6387 33.1816 49.9395 34.084 48.3926C34.9863 46.8457 36.1465 45.6562 37.5645 44.8242C38.9824 43.9805 40.5527 43.582 42.2754 43.6289C44.7246 43.6758 46.5762 44.5781 47.8301 46.3359C49.0957 48.082 49.5762 50.2969 49.2715 52.9805L48.9902 55.1426H37.3359C37.2891 56.373 37.5879 57.3574 38.2324 58.0957C38.877 58.834 39.7559 59.2148 40.8691 59.2383C42.6738 59.2852 44.2559 58.5879 45.6152 57.1465L47.8828 59.959C47.168 61.0371 46.1367 61.8809 44.7891 62.4902C43.4414 63.0879 41.9941 63.375 40.4473 63.3516ZM42.0293 47.7246C41.1152 47.7012 40.3008 47.9883 39.5859 48.5859C38.8828 49.1836 38.25 50.2207 37.6875 51.6973H44.5078L44.6133 51.2402C44.6836 50.7715 44.6895 50.3262 44.6309 49.9043C44.5137 49.2246 44.2266 48.6973 43.7695 48.3223C43.3125 47.9355 42.7324 47.7363 42.0293 47.7246ZM58.3066 43.9629L57.8848 46.2129C59.4082 44.4434 61.2539 43.582 63.4219 43.6289C65.2148 43.6641 66.5391 44.3203 67.3945 45.5977C68.25 46.875 68.5605 48.6445 68.3262 50.9062L66.3223 63H61.3652L63.4043 50.8535C63.4629 50.3965 63.4746 49.9805 63.4395 49.6055C63.2871 48.4102 62.5371 47.7949 61.1895 47.7598C59.8887 47.7129 58.7227 48.3164 57.6914 49.5703L55.3184 63H50.3613L53.666 43.9805L58.3066 43.9629ZM81.3867 54.0879H71.7539L72.457 49.9922H82.1074L81.3867 54.0879ZM100.723 61.3301L104.273 64.8105L100.758 67.5703L96.2754 63.2109C95.6074 63.3164 94.9863 63.3574 94.4121 63.334C91.8574 63.3105 89.7949 62.4434 88.2246 60.7324C86.6543 59.0215 85.7812 56.7188 85.6055 53.8242C85.5 52.3828 85.6055 50.7773 85.9219 49.0078C86.2383 47.2266 86.7656 45.5918 87.5039 44.1035C88.2422 42.6152 89.1445 41.3379 90.2109 40.2715C91.2891 39.2051 92.5137 38.3965 93.8848 37.8457C95.2559 37.2832 96.709 37.0195 98.2441 37.0547C99.9551 37.0898 101.455 37.4941 102.744 38.2676C104.033 39.041 105.053 40.1543 105.803 41.6074C106.553 43.0605 106.98 44.7246 107.086 46.5996C107.145 47.6191 107.115 48.6387 106.998 49.6582L106.699 51.6797C105.914 56.0391 103.922 59.2559 100.723 61.3301ZM101.918 47.8301C102 45.6621 101.701 44.0625 101.021 43.0312C100.354 41.9883 99.3457 41.4434 97.998 41.3965C95.8535 41.3262 94.1484 42.2754 92.8828 44.2441C91.6289 46.2129 90.9199 48.9668 90.7559 52.5059C90.6387 54.5801 90.9141 56.1797 91.582 57.3047C92.25 58.418 93.2871 58.998 94.6934 59.0449C96.5332 59.127 98.0566 58.4121 99.2637 56.9004C100.471 55.377 101.262 53.2266 101.637 50.4492C101.789 49.3242 101.883 48.4512 101.918 47.8301ZM148.658 43.9629L148.236 46.2129C149.76 44.4434 151.605 43.582 153.773 43.6289C155.566 43.6641 156.891 44.3203 157.746 45.5977C158.602 46.875 158.912 48.6445 158.678 50.9062L156.674 63H151.717L153.756 50.8535C153.814 50.3965 153.826 49.9805 153.791 49.6055C153.639 48.4102 152.889 47.7949 151.541 47.7598C150.24 47.7129 149.074 48.3164 148.043 49.5703L145.67 63H140.713L144.018 43.9805L148.658 43.9629ZM171.58 63C171.428 62.5195 171.363 61.9453 171.387 61.2773C169.957 62.707 168.34 63.3984 166.535 63.3516C164.871 63.3281 163.488 62.7891 162.387 61.7344C161.297 60.668 160.787 59.3555 160.857 57.7969C160.939 55.7227 161.807 54.1348 163.459 53.0332C165.123 51.9199 167.35 51.3633 170.139 51.3633L172.459 51.3984L172.705 50.2559C172.775 49.8691 172.793 49.5 172.758 49.1484C172.699 48.5977 172.488 48.1699 172.125 47.8652C171.773 47.5488 171.305 47.3848 170.719 47.373C169.945 47.3496 169.289 47.543 168.75 47.9531C168.211 48.3516 167.865 48.9316 167.713 49.6934L162.738 49.7109C162.82 47.8945 163.652 46.4238 165.234 45.2988C166.828 44.1621 168.791 43.6055 171.123 43.6289C173.279 43.6758 174.967 44.3203 176.186 45.5625C177.404 46.793 177.914 48.3809 177.715 50.3262L176.256 59.4316L176.168 60.5566C176.145 61.3887 176.244 62.0918 176.467 62.666L176.449 63H171.58ZM167.766 59.502C169.195 59.5488 170.443 58.9277 171.51 57.6387L172.125 54.3516L170.402 54.334C168.574 54.3809 167.256 54.9375 166.447 56.0039C166.154 56.3906 165.973 56.8652 165.902 57.4277C165.809 58.0605 165.938 58.5645 166.289 58.9395C166.652 59.3027 167.145 59.4902 167.766 59.502ZM184.729 63H179.736L184.43 36H189.404L184.729 63ZM197.016 55.7578L202.447 43.9805H207.967L196.84 65.8652C196.043 67.541 195.105 68.7715 194.027 69.5566C192.961 70.3418 191.725 70.7344 190.318 70.7344C189.768 70.7344 188.971 70.6113 187.928 70.3652L188.297 66.498L188.982 66.5332C190.6 66.5801 191.783 65.9883 192.533 64.7578L193.623 62.7363L190.512 43.9805H195.645L197.016 55.7578ZM217.688 57.6387C217.875 56.7012 217.225 56.0215 215.736 55.5996L214.137 55.1953C210.352 54.1523 208.512 52.3125 208.617 49.6758C208.676 47.8828 209.467 46.4238 210.99 45.2988C212.525 44.1621 214.371 43.6055 216.527 43.6289C218.672 43.6523 220.406 44.2207 221.73 45.334C223.055 46.4473 223.729 47.9297 223.752 49.7812L218.83 49.7637C218.854 48.1348 218.045 47.3086 216.404 47.2852C215.631 47.2852 214.957 47.4785 214.383 47.8652C213.82 48.252 213.475 48.7734 213.346 49.4297C213.17 50.3672 213.879 51.0293 215.473 51.416L216.176 51.5742C217.793 51.9609 219.029 52.4062 219.885 52.9102C220.74 53.4023 221.396 54.0176 221.854 54.7559C222.322 55.4941 222.539 56.3789 222.504 57.4102C222.469 58.6172 222.076 59.6719 221.326 60.5742C220.588 61.4766 219.568 62.1738 218.268 62.666C216.979 63.1582 215.619 63.3867 214.189 63.3516C212.08 63.3281 210.322 62.7246 208.916 61.541C207.51 60.3457 206.795 58.8047 206.771 56.918L211.447 56.9531C211.494 58.7695 212.467 59.6895 214.365 59.7129C215.279 59.7129 216.029 59.5254 216.615 59.1504C217.213 58.7754 217.57 58.2715 217.688 57.6387ZM230.045 63H225.053L228.357 43.9805H233.35L230.045 63ZM228.938 39.1465C228.914 38.3613 229.172 37.7109 229.711 37.1953C230.25 36.6797 230.9 36.4219 231.662 36.4219C232.412 36.3984 233.062 36.627 233.613 37.1074C234.164 37.5879 234.451 38.209 234.475 38.9707C234.498 39.6973 234.252 40.3301 233.736 40.8691C233.232 41.4082 232.57 41.6895 231.75 41.7129C231.012 41.7363 230.361 41.5137 229.799 41.0449C229.248 40.5762 228.961 39.9434 228.938 39.1465ZM245.285 57.6387C245.473 56.7012 244.822 56.0215 243.334 55.5996L241.734 55.1953C237.949 54.1523 236.109 52.3125 236.215 49.6758C236.273 47.8828 237.064 46.4238 238.588 45.2988C240.123 44.1621 241.969 43.6055 244.125 43.6289C246.27 43.6523 248.004 44.2207 249.328 45.334C250.652 46.4473 251.326 47.9297 251.35 49.7812L246.428 49.7637C246.451 48.1348 245.643 47.3086 244.002 47.2852C243.229 47.2852 242.555 47.4785 241.98 47.8652C241.418 48.252 241.072 48.7734 240.943 49.4297C240.768 50.3672 241.477 51.0293 243.07 51.416L243.773 51.5742C245.391 51.9609 246.627 52.4062 247.482 52.9102C248.338 53.4023 248.994 54.0176 249.451 54.7559C249.92 55.4941 250.137 56.3789 250.102 57.4102C250.066 58.6172 249.674 59.6719 248.924 60.5742C248.186 61.4766 247.166 62.1738 245.865 62.666C244.576 63.1582 243.217 63.3867 241.787 63.3516C239.678 63.3281 237.92 62.7246 236.514 61.541C235.107 60.3457 234.393 58.8047 234.369 56.918L239.045 56.9531C239.092 58.7695 240.064 59.6895 241.963 59.7129C242.877 59.7129 243.627 59.5254 244.213 59.1504C244.811 58.7754 245.168 58.2715 245.285 57.6387ZM293.221 63.3516C291.557 63.3398 290.08 62.9355 288.791 62.1387C287.514 61.3301 286.559 60.2285 285.926 58.834C285.293 57.4277 285.047 55.8809 285.188 54.1934L285.24 53.4902C285.416 51.6387 285.955 49.9395 286.857 48.3926C287.76 46.8457 288.92 45.6562 290.338 44.8242C291.756 43.9805 293.326 43.582 295.049 43.6289C297.498 43.6758 299.35 44.5781 300.604 46.3359C301.869 48.082 302.35 50.2969 302.045 52.9805L301.764 55.1426H290.109C290.062 56.373 290.361 57.3574 291.006 58.0957C291.65 58.834 292.529 59.2148 293.643 59.2383C295.447 59.2852 297.029 58.5879 298.389 57.1465L300.656 59.959C299.941 61.0371 298.91 61.8809 297.562 62.4902C296.215 63.0879 294.768 63.375 293.221 63.3516ZM294.803 47.7246C293.889 47.7012 293.074 47.9883 292.359 48.5859C291.656 49.1836 291.023 50.2207 290.461 51.6973H297.281L297.387 51.2402C297.457 50.7715 297.463 50.3262 297.404 49.9043C297.287 49.2246 297 48.6973 296.543 48.3223C296.086 47.9355 295.506 47.7363 294.803 47.7246ZM314.262 57.6387C314.449 56.7012 313.799 56.0215 312.311 55.5996L310.711 55.1953C306.926 54.1523 305.086 52.3125 305.191 49.6758C305.25 47.8828 306.041 46.4238 307.564 45.2988C309.1 44.1621 310.945 43.6055 313.102 43.6289C315.246 43.6523 316.98 44.2207 318.305 45.334C319.629 46.4473 320.303 47.9297 320.326 49.7812L315.404 49.7637C315.428 48.1348 314.619 47.3086 312.979 47.2852C312.205 47.2852 311.531 47.4785 310.957 47.8652C310.395 48.252 310.049 48.7734 309.92 49.4297C309.744 50.3672 310.453 51.0293 312.047 51.416L312.75 51.5742C314.367 51.9609 315.604 52.4062 316.459 52.9102C317.314 53.4023 317.971 54.0176 318.428 54.7559C318.896 55.4941 319.113 56.3789 319.078 57.4102C319.043 58.6172 318.65 59.6719 317.9 60.5742C317.162 61.4766 316.143 62.1738 314.842 62.666C313.553 63.1582 312.193 63.3867 310.764 63.3516C308.654 63.3281 306.896 62.7246 305.49 61.541C304.084 60.3457 303.369 58.8047 303.346 56.918L308.021 56.9531C308.068 58.7695 309.041 59.6895 310.939 59.7129C311.854 59.7129 312.604 59.5254 313.189 59.1504C313.787 58.7754 314.145 58.2715 314.262 57.6387ZM329.607 55.4238L327.305 57.4277L326.338 63H321.381L326.057 36H331.031L328.465 50.6602L329.432 49.623L335.074 43.9805H341.438L333.123 52.1543L338.414 63H332.982L329.607 55.4238ZM350.279 39.3047L349.453 43.9805H352.617L351.967 47.707H348.803L347.186 57.2344C347.115 57.832 347.162 58.2891 347.326 58.6055C347.49 58.9219 347.889 59.0918 348.521 59.1152C348.709 59.127 349.213 59.0977 350.033 59.0273L349.682 62.9121C348.803 63.2051 347.854 63.3398 346.834 63.3164C345.205 63.293 343.992 62.7832 343.195 61.7871C342.398 60.791 342.07 59.4434 342.211 57.7441L343.846 47.707H341.156L341.807 43.9805H344.496L345.305 39.3047H350.279ZM362.566 43.6289C364.242 43.6523 365.684 44.0859 366.891 44.9297C368.109 45.7617 369 46.916 369.562 48.3926C370.137 49.8574 370.342 51.4863 370.178 53.2793C369.908 56.3027 368.854 58.752 367.014 60.627C365.186 62.4902 362.924 63.3984 360.229 63.3516C358.576 63.3281 357.146 62.9062 355.939 62.0859C354.732 61.2539 353.842 60.1055 353.268 58.6406C352.693 57.1758 352.488 55.5586 352.652 53.7891C352.957 50.6484 354.023 48.1523 355.852 46.3008C357.68 44.4492 359.918 43.5586 362.566 43.6289ZM357.557 55.5996C357.58 56.7246 357.844 57.6152 358.348 58.2715C358.852 58.916 359.561 59.25 360.475 59.2734C361.998 59.3203 363.193 58.623 364.061 57.1816C364.928 55.7285 365.332 53.8242 365.273 51.4688C365.227 50.3438 364.951 49.4473 364.447 48.7793C363.955 48.0996 363.246 47.748 362.32 47.7246C360.844 47.6777 359.66 48.375 358.77 49.8164C357.891 51.2461 357.486 53.1738 357.557 55.5996ZM389.883 53.543C389.637 55.5352 389.115 57.3047 388.318 58.8516C387.521 60.3984 386.531 61.5469 385.348 62.2969C384.164 63.0469 382.852 63.4043 381.41 63.3691C379.57 63.3223 378.117 62.6367 377.051 61.3125L375.311 70.3125H370.354L374.906 43.9805L379.477 43.9629L379.143 45.8789C380.514 44.332 382.131 43.582 383.994 43.6289C385.857 43.6758 387.305 44.3555 388.336 45.668C389.367 46.9688 389.918 48.7383 389.988 50.9766C390.012 51.7031 389.977 52.5586 389.883 53.543ZM384.961 53.1738L385.066 51.4863C385.09 50.3496 384.879 49.4473 384.434 48.7793C384 48.1113 383.361 47.7656 382.518 47.7422C381.076 47.6953 379.887 48.3047 378.949 49.5703L377.525 57.4102C377.959 58.5938 378.891 59.209 380.32 59.2559C381.516 59.291 382.512 58.8281 383.309 57.8672C384.105 56.9062 384.656 55.3418 384.961 53.1738ZM429.609 43.6113C431.379 43.6582 432.809 44.3672 433.898 45.7383L435.762 36H440.736L436.061 63H431.631L431.912 60.9609C430.494 62.6133 428.842 63.416 426.955 63.3691C425.771 63.3574 424.734 63.0469 423.844 62.4375C422.953 61.8281 422.262 60.9551 421.77 59.8184C421.289 58.6699 421.025 57.3926 420.979 55.9863C420.943 55.248 420.961 54.5332 421.031 53.8418L421.137 53.0508C421.418 51.1055 421.957 49.3945 422.754 47.918C423.562 46.4414 424.547 45.3457 425.707 44.6309C426.879 43.916 428.18 43.5762 429.609 43.6113ZM426.006 53.8418C425.912 54.7324 425.883 55.4824 425.918 56.0918C426.035 58.1543 426.867 59.2031 428.414 59.2383C429.809 59.2969 431.021 58.6406 432.053 57.2695L433.406 49.7109C432.949 48.457 432.035 47.8008 430.664 47.7422C429.457 47.707 428.449 48.1758 427.641 49.1484C426.844 50.1094 426.299 51.6738 426.006 53.8418ZM445.271 63H440.279L443.584 43.9805H448.576L445.271 63ZM444.164 39.1465C444.141 38.3613 444.398 37.7109 444.938 37.1953C445.477 36.6797 446.127 36.4219 446.889 36.4219C447.639 36.3984 448.289 36.627 448.84 37.1074C449.391 37.5879 449.678 38.209 449.701 38.9707C449.725 39.6973 449.479 40.3301 448.963 40.8691C448.459 41.4082 447.797 41.6895 446.977 41.7129C446.238 41.7363 445.588 41.5137 445.025 41.0449C444.475 40.5762 444.188 39.9434 444.164 39.1465ZM459.545 39.3047L458.719 43.9805H461.883L461.232 47.707H458.068L456.451 57.2344C456.381 57.832 456.428 58.2891 456.592 58.6055C456.756 58.9219 457.154 59.0918 457.787 59.1152C457.975 59.127 458.479 59.0977 459.299 59.0273L458.947 62.9121C458.068 63.2051 457.119 63.3398 456.1 63.3164C454.471 63.293 453.258 62.7832 452.461 61.7871C451.664 60.791 451.336 59.4434 451.477 57.7441L453.111 47.707H450.422L451.072 43.9805H453.762L454.57 39.3047H459.545ZM466.717 63H461.725L465.029 43.9805H470.021L466.717 63ZM465.609 39.1465C465.586 38.3613 465.844 37.7109 466.383 37.1953C466.922 36.6797 467.572 36.4219 468.334 36.4219C469.084 36.3984 469.734 36.627 470.285 37.1074C470.836 37.5879 471.123 38.209 471.146 38.9707C471.17 39.6973 470.924 40.3301 470.408 40.8691C469.904 41.4082 469.242 41.6895 468.422 41.7129C467.684 41.7363 467.033 41.5137 466.471 41.0449C465.92 40.5762 465.633 39.9434 465.609 39.1465ZM481.816 43.6289C483.492 43.6523 484.934 44.0859 486.141 44.9297C487.359 45.7617 488.25 46.916 488.812 48.3926C489.387 49.8574 489.592 51.4863 489.428 53.2793C489.158 56.3027 488.104 58.752 486.264 60.627C484.436 62.4902 482.174 63.3984 479.479 63.3516C477.826 63.3281 476.396 62.9062 475.189 62.0859C473.982 61.2539 473.092 60.1055 472.518 58.6406C471.943 57.1758 471.738 55.5586 471.902 53.7891C472.207 50.6484 473.273 48.1523 475.102 46.3008C476.93 44.4492 479.168 43.5586 481.816 43.6289ZM476.807 55.5996C476.83 56.7246 477.094 57.6152 477.598 58.2715C478.102 58.916 478.811 59.25 479.725 59.2734C481.248 59.3203 482.443 58.623 483.311 57.1816C484.178 55.7285 484.582 53.8242 484.523 51.4688C484.477 50.3438 484.201 49.4473 483.697 48.7793C483.205 48.0996 482.496 47.748 481.57 47.7246C480.094 47.6777 478.91 48.375 478.02 49.8164C477.141 51.2461 476.736 53.1738 476.807 55.5996ZM498.709 43.9629L498.287 46.2129C499.811 44.4434 501.656 43.582 503.824 43.6289C505.617 43.6641 506.941 44.3203 507.797 45.5977C508.652 46.875 508.963 48.6445 508.729 50.9062L506.725 63H501.768L503.807 50.8535C503.865 50.3965 503.877 49.9805 503.842 49.6055C503.689 48.4102 502.939 47.7949 501.592 47.7598C500.291 47.7129 499.125 48.3164 498.094 49.5703L495.721 63H490.764L494.068 43.9805L498.709 43.9629Z" fill="black"/>
<path d="M169 468.766L160 477.109L156.719 496H142.984L154.844 427.75H168.578L163.328 457.844L170.312 449.969L190.844 427.75H208.75L179.266 458.781L196.844 496H181.188L169 468.766ZM242.734 481.938H218.922L211.891 496H196.75L233.219 427.75H245.922L258.906 496H244.891L242.734 481.938ZM224.547 470.547H241L237.156 445.141L224.547 470.547ZM265.797 496L277.656 427.75L297.25 427.797C301.844 427.891 305.969 428.938 309.625 430.938C313.312 432.906 316.297 435.75 318.578 439.469C320.859 443.188 322.234 447.375 322.703 452.031C322.953 454.75 322.922 457.531 322.609 460.375L322.281 462.859C320.906 472.859 316.969 480.891 310.469 486.953C304 492.984 296.141 496 286.891 496H265.797ZM289.422 439.141L281.5 484.703L287.219 484.75C293.531 484.75 298.594 482.438 302.406 477.812C306.25 473.188 308.453 466.203 309.016 456.859L309.109 455.359C309.203 450.203 308.219 446.25 306.156 443.5C304.094 440.75 301.016 439.312 296.922 439.188L289.422 439.141ZM371.875 466.422H345.719L342.531 484.703H373.281L371.312 496H326.828L338.688 427.75H383.078L381.062 439.141H350.453L347.594 455.406H373.844L371.875 466.422Z" fill="black"/>
<defs>
<filter id="filter0_i" x="110" y="90" width="300" height="304" filterUnits="userSpaceOnUse" color-interpolation-filters="sRGB">
<feFlood flood-opacity="0" result="BackgroundImageFix"/>
<feBlend mode="normal" in="SourceGraphic" in2="BackgroundImageFix" result="shape"/>
<feColorMatrix in="SourceAlpha" type="matrix" values="0 0 0 0 0 0 0 0 0 0 0 0 0 0 0 0 0 0 127 0" result="hardAlpha"/>
<feOffset dy="4"/>
<feGaussianBlur stdDeviation="2"/>
<feComposite in2="hardAlpha" operator="arithmetic" k2="-1" k3="1"/>
<feColorMatrix type="matrix" values="0 0 0 0 0 0 0 0 0 0 0 0 0 0 0 0 0 0 0.25 0"/>
<feBlend mode="normal" in2="shape" result="effect1_innerShadow"/>
</filter>
<linearGradient id="paint0_linear" x1="260" y1="90" x2="260" y2="390" gradientUnits="userSpaceOnUse">
<stop stop-color="white"/>
<stop offset="1" stop-color="white" stop-opacity="0"/>
</linearGradient>
</defs>
</svg>
