<svg width="121" height="154" viewBox="0 0 121 154" fill="none" xmlns="http://www.w3.org/2000/svg">
<path d="M1 0H98.5727C98.8456 0 99.1067 0.111551 99.2953 0.308778L120.723 22.71C120.901 22.8961 121 23.1437 121 23.4013V153C121 153.552 120.552 154 120 154H1C0.447715 154 0 153.552 0 153V1C0 0.447715 0.447716 0 1 0Z" fill="white" stroke="black" stroke-width="6"/>
<path opacity="0.15" d="M120 22.5V44.5L98 22.5L120 22.5Z" fill="black" fill-opacity="0.33" stroke="black" stroke-opacity="0.33"/>
<rect x="48.5" y="108" width="70" height="44" fill="black" fill-opacity="0.06"/>
<path opacity="0.15" d="M48 112.5L48 152.5L8 112.5H48Z" fill="black" fill-opacity="0.33" stroke="black" stroke-opacity="0.33"/>
<path d="M98 22.5V0.5L120 22.5H98Z" fill="black" stroke="black"/>
<rect x="7.5" y="96" width="113" height="49" rx="1" fill="black"/>
<path d="M49.0568 116.875H44.0795C43.9886 116.231 43.803 115.659 43.5227 115.159C43.2424 114.652 42.8826 114.22 42.4432 113.864C42.0038 113.508 41.4962 113.235 40.9205 113.045C40.3523 112.856 39.7348 112.761 39.0682 112.761C37.8636 112.761 36.8144 113.061 35.9205 113.659C35.0265 114.25 34.3333 115.114 33.8409 116.25C33.3485 117.379 33.1023 118.75 33.1023 120.364C33.1023 122.023 33.3485 123.417 33.8409 124.545C34.3409 125.674 35.0379 126.527 35.9318 127.102C36.8258 127.678 37.8598 127.966 39.0341 127.966C39.6932 127.966 40.303 127.879 40.8636 127.705C41.4318 127.53 41.9356 127.277 42.375 126.943C42.8144 126.602 43.178 126.189 43.4659 125.705C43.7614 125.22 43.9659 124.667 44.0795 124.045L49.0568 124.068C48.928 125.136 48.6061 126.167 48.0909 127.159C47.5833 128.144 46.8977 129.027 46.0341 129.807C45.178 130.58 44.1553 131.193 42.9659 131.648C41.7841 132.095 40.447 132.318 38.9545 132.318C36.8788 132.318 35.0227 131.848 33.3864 130.909C31.7576 129.97 30.4697 128.61 29.5227 126.83C28.5833 125.049 28.1136 122.894 28.1136 120.364C28.1136 117.826 28.5909 115.667 29.5455 113.886C30.5 112.106 31.7955 110.75 33.4318 109.818C35.0682 108.879 36.9091 108.409 38.9545 108.409C40.303 108.409 41.553 108.598 42.7045 108.977C43.8636 109.356 44.8902 109.909 45.7841 110.636C46.678 111.356 47.4053 112.239 47.9659 113.284C48.5341 114.33 48.8977 115.527 49.0568 116.875ZM65.2102 115.42C65.1193 114.504 64.7292 113.792 64.0398 113.284C63.3504 112.777 62.4148 112.523 61.233 112.523C60.4299 112.523 59.7519 112.636 59.1989 112.864C58.6458 113.083 58.2216 113.39 57.9261 113.784C57.6383 114.178 57.4943 114.625 57.4943 115.125C57.4792 115.542 57.5663 115.905 57.7557 116.216C57.9527 116.527 58.2216 116.795 58.5625 117.023C58.9034 117.242 59.2973 117.436 59.7443 117.602C60.1913 117.761 60.6686 117.898 61.1761 118.011L63.267 118.511C64.2822 118.739 65.214 119.042 66.0625 119.42C66.911 119.799 67.6458 120.265 68.267 120.818C68.8883 121.371 69.3693 122.023 69.7102 122.773C70.0587 123.523 70.2367 124.383 70.2443 125.352C70.2367 126.777 69.8731 128.011 69.1534 129.057C68.4413 130.095 67.411 130.902 66.0625 131.477C64.7216 132.045 63.1042 132.33 61.2102 132.33C59.3314 132.33 57.6951 132.042 56.3011 131.466C54.9148 130.89 53.8314 130.038 53.0511 128.909C52.2784 127.773 51.8731 126.367 51.8352 124.693H56.5966C56.6496 125.473 56.8731 126.125 57.267 126.648C57.6686 127.163 58.2027 127.553 58.8693 127.818C59.5436 128.076 60.3049 128.205 61.1534 128.205C61.9867 128.205 62.7102 128.083 63.3239 127.841C63.9451 127.598 64.4261 127.261 64.767 126.83C65.108 126.398 65.2784 125.902 65.2784 125.341C65.2784 124.818 65.1231 124.379 64.8125 124.023C64.5095 123.667 64.0625 123.364 63.4716 123.114C62.8883 122.864 62.1723 122.636 61.3239 122.432L58.7898 121.795C56.8277 121.318 55.2784 120.572 54.142 119.557C53.0057 118.542 52.4413 117.174 52.4489 115.455C52.4413 114.045 52.8163 112.814 53.5739 111.761C54.339 110.708 55.3883 109.886 56.7216 109.295C58.0549 108.705 59.5701 108.409 61.267 108.409C62.9943 108.409 64.5019 108.705 65.7898 109.295C67.0852 109.886 68.0928 110.708 68.8125 111.761C69.5322 112.814 69.9034 114.034 69.9261 115.42H65.2102ZM77.7585 108.727L83.3835 126.409H83.5994L89.2358 108.727H94.6903L86.6676 132H80.3267L72.2926 108.727H77.7585Z" fill="white"/>
<rect x="21.5" y="31.5" width="80" height="55" stroke="black" stroke-width="5"/>
<rect x="21.5" y="49.5" width="80" height="20" stroke="black" stroke-width="5"/>
</svg>
