<svg width="121" height="154" viewBox="0 0 121 154" fill="none" xmlns="http://www.w3.org/2000/svg">
<path d="M1 0H98.5727C98.8456 0 99.1067 0.111551 99.2953 0.308778L120.723 22.71C120.901 22.8961 121 23.1437 121 23.4013V153C121 153.552 120.552 154 120 154H1C0.447715 154 0 153.552 0 153V1C0 0.447715 0.447716 0 1 0Z" fill="white" stroke="black" stroke-width="6"/>
<path opacity="0.15" d="M120 22.5V44.5L98 22.5L120 22.5Z" fill="black" fill-opacity="0.33" stroke="black" stroke-opacity="0.33"/>
<rect x="48.5" y="108" width="70" height="44" fill="black" fill-opacity="0.06"/>
<path opacity="0.15" d="M48 112.5L48 152.5L8 112.5H48Z" fill="black" fill-opacity="0.33" stroke="black" stroke-opacity="0.33"/>
<path d="M98 22.5V0.5L120 22.5H98Z" fill="black" stroke="black"/>
<rect x="7.5" y="63" width="113" height="49" rx="1" fill="black"/>
<path d="M49.0568 83.875H44.0795C43.9886 83.2311 43.803 82.6591 43.5227 82.1591C43.2424 81.6515 42.8826 81.2197 42.4432 80.8636C42.0038 80.5076 41.4962 80.2348 40.9205 80.0455C40.3523 79.8561 39.7348 79.7614 39.0682 79.7614C37.8636 79.7614 36.8144 80.0606 35.9205 80.6591C35.0265 81.25 34.3333 82.1136 33.8409 83.25C33.3485 84.3788 33.1023 85.75 33.1023 87.3636C33.1023 89.0227 33.3485 90.4167 33.8409 91.5455C34.3409 92.6742 35.0379 93.5265 35.9318 94.1023C36.8258 94.678 37.8598 94.9659 39.0341 94.9659C39.6932 94.9659 40.303 94.8788 40.8636 94.7045C41.4318 94.5303 41.9356 94.2765 42.375 93.9432C42.8144 93.6023 43.178 93.1894 43.4659 92.7045C43.7614 92.2197 43.9659 91.6667 44.0795 91.0455L49.0568 91.0682C48.928 92.1364 48.6061 93.1667 48.0909 94.1591C47.5833 95.1439 46.8977 96.0265 46.0341 96.8068C45.178 97.5795 44.1553 98.1932 42.9659 98.6477C41.7841 99.0947 40.447 99.3182 38.9545 99.3182C36.8788 99.3182 35.0227 98.8485 33.3864 97.9091C31.7576 96.9697 30.4697 95.6098 29.5227 93.8295C28.5833 92.0492 28.1136 89.8939 28.1136 87.3636C28.1136 84.8258 28.5909 82.6667 29.5455 80.8864C30.5 79.1061 31.7955 77.75 33.4318 76.8182C35.0682 75.8788 36.9091 75.4091 38.9545 75.4091C40.303 75.4091 41.553 75.5985 42.7045 75.9773C43.8636 76.3561 44.8902 76.9091 45.7841 77.6364C46.678 78.3561 47.4053 79.2386 47.9659 80.2841C48.5341 81.3295 48.8977 82.5265 49.0568 83.875ZM65.2102 82.4205C65.1193 81.5038 64.7292 80.7917 64.0398 80.2841C63.3504 79.7765 62.4148 79.5227 61.233 79.5227C60.4299 79.5227 59.7519 79.6364 59.1989 79.8636C58.6458 80.0833 58.2216 80.3902 57.9261 80.7841C57.6383 81.178 57.4943 81.625 57.4943 82.125C57.4792 82.5417 57.5663 82.9053 57.7557 83.2159C57.9527 83.5265 58.2216 83.7955 58.5625 84.0227C58.9034 84.2424 59.2973 84.4356 59.7443 84.6023C60.1913 84.7614 60.6686 84.8977 61.1761 85.0114L63.267 85.5114C64.2822 85.7386 65.214 86.0417 66.0625 86.4205C66.911 86.7992 67.6458 87.2652 68.267 87.8182C68.8883 88.3712 69.3693 89.0227 69.7102 89.7727C70.0587 90.5227 70.2367 91.3826 70.2443 92.3523C70.2367 93.7765 69.8731 95.0114 69.1534 96.0568C68.4413 97.0947 67.411 97.9015 66.0625 98.4773C64.7216 99.0455 63.1042 99.3295 61.2102 99.3295C59.3314 99.3295 57.6951 99.0417 56.3011 98.4659C54.9148 97.8902 53.8314 97.0379 53.0511 95.9091C52.2784 94.7727 51.8731 93.3674 51.8352 91.6932H56.5966C56.6496 92.4735 56.8731 93.125 57.267 93.6477C57.6686 94.1629 58.2027 94.553 58.8693 94.8182C59.5436 95.0758 60.3049 95.2045 61.1534 95.2045C61.9867 95.2045 62.7102 95.0833 63.3239 94.8409C63.9451 94.5985 64.4261 94.2614 64.767 93.8295C65.108 93.3977 65.2784 92.9015 65.2784 92.3409C65.2784 91.8182 65.1231 91.3788 64.8125 91.0227C64.5095 90.6667 64.0625 90.3636 63.4716 90.1136C62.8883 89.8636 62.1723 89.6364 61.3239 89.4318L58.7898 88.7955C56.8277 88.3182 55.2784 87.572 54.142 86.5568C53.0057 85.5417 52.4413 84.1742 52.4489 82.4545C52.4413 81.0455 52.8163 79.8144 53.5739 78.7614C54.339 77.7083 55.3883 76.8864 56.7216 76.2955C58.0549 75.7045 59.5701 75.4091 61.267 75.4091C62.9943 75.4091 64.5019 75.7045 65.7898 76.2955C67.0852 76.8864 68.0928 77.7083 68.8125 78.7614C69.5322 79.8144 69.9034 81.0341 69.9261 82.4205H65.2102ZM77.7585 75.7273L83.3835 93.4091H83.5994L89.2358 75.7273H94.6903L86.6676 99H80.3267L72.2926 75.7273H77.7585Z" fill="white"/>
</svg>
