<svg width="121" height="154" viewBox="0 0 121 154" fill="none" xmlns="http://www.w3.org/2000/svg">
<path d="M1 0H98.5727C98.8456 0 99.1067 0.111551 99.2953 0.308778L120.723 22.71C120.901 22.8961 121 23.1437 121 23.4013V153C121 153.552 120.552 154 120 154H1C0.447715 154 0 153.552 0 153V1C0 0.447715 0.447716 0 1 0Z" fill="white" stroke="black" stroke-width="6"/>
<path opacity="0.15" d="M120 22.5V44.5L98 22.5L120 22.5Z" fill="black" fill-opacity="0.33" stroke="black" stroke-opacity="0.33"/>
<rect x="48.5" y="108" width="70" height="44" fill="black" fill-opacity="0.06"/>
<path opacity="0.15" d="M48 112.5L48 152.5L8 112.5H48Z" fill="black" fill-opacity="0.33" stroke="black" stroke-opacity="0.33"/>
<path d="M98 22.5V0.5L120 22.5H98Z" fill="black" stroke="black"/>
<rect x="7.5" y="63" width="113" height="49" rx="1" fill="black"/>
<path d="M32.7727 99H24.5227V75.7273H32.8409C35.1818 75.7273 37.197 76.1932 38.8864 77.125C40.5758 78.0492 41.875 79.3788 42.7841 81.1136C43.7008 82.8485 44.1591 84.9242 44.1591 87.3409C44.1591 89.7652 43.7008 91.8485 42.7841 93.5909C41.875 95.3333 40.5682 96.6705 38.8636 97.6023C37.1667 98.5341 35.1364 99 32.7727 99ZM29.4432 94.7841H32.5682C34.0227 94.7841 35.2462 94.5265 36.2386 94.0114C37.2386 93.4886 37.9886 92.6818 38.4886 91.5909C38.9962 90.4924 39.25 89.0758 39.25 87.3409C39.25 85.6212 38.9962 84.2159 38.4886 83.125C37.9886 82.0341 37.2424 81.2311 36.25 80.7159C35.2576 80.2008 34.0341 79.9432 32.5795 79.9432H29.4432V94.7841ZM50.5028 99H45.2301L53.2642 75.7273H59.6051L67.6278 99H62.3551L56.5256 81.0455H56.3438L50.5028 99ZM50.1733 89.8523H62.6278V93.6932H50.1733V89.8523ZM66.6989 79.7841V75.7273H85.8125V79.7841H78.6875V99H73.8239V79.7841H66.6989Z" fill="white"/>
</svg>
