<svg width="121" height="154" viewBox="0 0 121 154" fill="none" xmlns="http://www.w3.org/2000/svg">
<path d="M1 0H98.5727C98.8456 0 99.1067 0.111551 99.2953 0.308778L120.723 22.71C120.901 22.8961 121 23.1437 121 23.4013V153C121 153.552 120.552 154 120 154H1C0.447715 154 0 153.552 0 153V1C0 0.447715 0.447716 0 1 0Z" fill="white" stroke="black" stroke-width="6"/>
<path opacity="0.15" d="M120 22.5V44.5L98 22.5L120 22.5Z" fill="black" fill-opacity="0.33" stroke="black" stroke-opacity="0.33"/>
<rect x="48.5" y="108" width="70" height="44" fill="black" fill-opacity="0.06"/>
<path opacity="0.15" d="M48 112.5L48 152.5L8 112.5H48Z" fill="black" fill-opacity="0.33" stroke="black" stroke-opacity="0.33"/>
<path d="M98 22.5V0.5L120 22.5H98Z" fill="black" stroke="black"/>
<rect x="7.5" y="63" width="113" height="49" rx="1" fill="black"/>
<path d="M25.7727 99H17.5227V75.7273H25.8409C28.1818 75.7273 30.197 76.1932 31.8864 77.125C33.5758 78.0492 34.875 79.3788 35.7841 81.1136C36.7008 82.8485 37.1591 84.9242 37.1591 87.3409C37.1591 89.7652 36.7008 91.8485 35.7841 93.5909C34.875 95.3333 33.5682 96.6705 31.8636 97.6023C30.1667 98.5341 28.1364 99 25.7727 99ZM22.4432 94.7841H25.5682C27.0227 94.7841 28.2462 94.5265 29.2386 94.0114C30.2386 93.4886 30.9886 92.6818 31.4886 91.5909C31.9962 90.4924 32.25 89.0758 32.25 87.3409C32.25 85.6212 31.9962 84.2159 31.4886 83.125C30.9886 82.0341 30.2424 81.2311 29.25 80.7159C28.2576 80.2008 27.0341 79.9432 25.5795 79.9432H22.4432V94.7841ZM62.1903 87.3636C62.1903 89.9015 61.7093 92.0606 60.7472 93.8409C59.7926 95.6212 58.4896 96.9811 56.8381 97.9205C55.1941 98.8523 53.3456 99.3182 51.2926 99.3182C49.2244 99.3182 47.3684 98.8485 45.7244 97.9091C44.0805 96.9697 42.7813 95.6098 41.8267 93.8295C40.8722 92.0492 40.3949 89.8939 40.3949 87.3636C40.3949 84.8258 40.8722 82.6667 41.8267 80.8864C42.7813 79.1061 44.0805 77.75 45.7244 76.8182C47.3684 75.8788 49.2244 75.4091 51.2926 75.4091C53.3456 75.4091 55.1941 75.8788 56.8381 76.8182C58.4896 77.75 59.7926 79.1061 60.7472 80.8864C61.7093 82.6667 62.1903 84.8258 62.1903 87.3636ZM57.2017 87.3636C57.2017 85.7197 56.9555 84.3333 56.4631 83.2045C55.9782 82.0758 55.2926 81.2197 54.4062 80.6364C53.5199 80.053 52.482 79.7614 51.2926 79.7614C50.1032 79.7614 49.0653 80.053 48.179 80.6364C47.2926 81.2197 46.6032 82.0758 46.1108 83.2045C45.6259 84.3333 45.3835 85.7197 45.3835 87.3636C45.3835 89.0076 45.6259 90.3939 46.1108 91.5227C46.6032 92.6515 47.2926 93.5076 48.179 94.0909C49.0653 94.6742 50.1032 94.9659 51.2926 94.9659C52.482 94.9659 53.5199 94.6742 54.4062 94.0909C55.2926 93.5076 55.9782 92.6515 56.4631 91.5227C56.9555 90.3939 57.2017 89.0076 57.2017 87.3636ZM86.3693 83.875H81.392C81.3011 83.2311 81.1155 82.6591 80.8352 82.1591C80.5549 81.6515 80.1951 81.2197 79.7557 80.8636C79.3163 80.5076 78.8087 80.2348 78.233 80.0455C77.6648 79.8561 77.0473 79.7614 76.3807 79.7614C75.1761 79.7614 74.1269 80.0606 73.233 80.6591C72.339 81.25 71.6458 82.1136 71.1534 83.25C70.661 84.3788 70.4148 85.75 70.4148 87.3636C70.4148 89.0227 70.661 90.4167 71.1534 91.5455C71.6534 92.6742 72.3504 93.5265 73.2443 94.1023C74.1383 94.678 75.1723 94.9659 76.3466 94.9659C77.0057 94.9659 77.6155 94.8788 78.1761 94.7045C78.7443 94.5303 79.2481 94.2765 79.6875 93.9432C80.1269 93.6023 80.4905 93.1894 80.7784 92.7045C81.0739 92.2197 81.2784 91.6667 81.392 91.0455L86.3693 91.0682C86.2405 92.1364 85.9186 93.1667 85.4034 94.1591C84.8958 95.1439 84.2102 96.0265 83.3466 96.8068C82.4905 97.5795 81.4678 98.1932 80.2784 98.6477C79.0966 99.0947 77.7595 99.3182 76.267 99.3182C74.1913 99.3182 72.3352 98.8485 70.6989 97.9091C69.0701 96.9697 67.7822 95.6098 66.8352 93.8295C65.8958 92.0492 65.4261 89.8939 65.4261 87.3636C65.4261 84.8258 65.9034 82.6667 66.858 80.8864C67.8125 79.1061 69.108 77.75 70.7443 76.8182C72.3807 75.8788 74.2216 75.4091 76.267 75.4091C77.6155 75.4091 78.8655 75.5985 80.017 75.9773C81.1761 76.3561 82.2027 76.9091 83.0966 77.6364C83.9905 78.3561 84.7178 79.2386 85.2784 80.2841C85.8466 81.3295 86.2102 82.5265 86.3693 83.875ZM94.0114 75.7273L98.7045 83.6591H98.8864L103.602 75.7273H109.159L102.057 87.3636L109.318 99H103.659L98.8864 91.0568H98.7045L93.9318 99H88.2955L95.5795 87.3636L88.4318 75.7273H94.0114Z" fill="white"/>
</svg>
