<svg width="121" height="154" viewBox="0 0 121 154" fill="none" xmlns="http://www.w3.org/2000/svg">
<path d="M1 0H98.5727C98.8456 0 99.1067 0.111551 99.2953 0.308778L120.723 22.71C120.901 22.8961 121 23.1437 121 23.4013V153C121 153.552 120.552 154 120 154H1C0.447715 154 0 153.552 0 153V1C0 0.447715 0.447716 0 1 0Z" fill="white" stroke="black" stroke-width="6"/>
<path opacity="0.15" d="M120 22.5V44.5L98 22.5L120 22.5Z" fill="black" fill-opacity="0.33" stroke="black" stroke-opacity="0.33"/>
<rect x="48.5" y="108" width="70" height="44" fill="black" fill-opacity="0.06"/>
<path opacity="0.15" d="M48 112.5L48 152.5L8 112.5H48Z" fill="black" fill-opacity="0.33" stroke="black" stroke-opacity="0.33"/>
<path d="M98 22.5V0.5L120 22.5H98Z" fill="black" stroke="black"/>
<rect x="7.5" y="96" width="113" height="49" rx="1" fill="black"/>
<path d="M25.7727 132H17.5227V108.727H25.8409C28.1818 108.727 30.197 109.193 31.8864 110.125C33.5758 111.049 34.875 112.379 35.7841 114.114C36.7008 115.848 37.1591 117.924 37.1591 120.341C37.1591 122.765 36.7008 124.848 35.7841 126.591C34.875 128.333 33.5682 129.67 31.8636 130.602C30.1667 131.534 28.1364 132 25.7727 132ZM22.4432 127.784H25.5682C27.0227 127.784 28.2462 127.527 29.2386 127.011C30.2386 126.489 30.9886 125.682 31.4886 124.591C31.9962 123.492 32.25 122.076 32.25 120.341C32.25 118.621 31.9962 117.216 31.4886 116.125C30.9886 115.034 30.2424 114.231 29.25 113.716C28.2576 113.201 27.0341 112.943 25.5795 112.943H22.4432V127.784ZM62.1903 120.364C62.1903 122.902 61.7093 125.061 60.7472 126.841C59.7926 128.621 58.4896 129.981 56.8381 130.92C55.1941 131.852 53.3456 132.318 51.2926 132.318C49.2244 132.318 47.3684 131.848 45.7244 130.909C44.0805 129.97 42.7813 128.61 41.8267 126.83C40.8722 125.049 40.3949 122.894 40.3949 120.364C40.3949 117.826 40.8722 115.667 41.8267 113.886C42.7813 112.106 44.0805 110.75 45.7244 109.818C47.3684 108.879 49.2244 108.409 51.2926 108.409C53.3456 108.409 55.1941 108.879 56.8381 109.818C58.4896 110.75 59.7926 112.106 60.7472 113.886C61.7093 115.667 62.1903 117.826 62.1903 120.364ZM57.2017 120.364C57.2017 118.72 56.9555 117.333 56.4631 116.205C55.9782 115.076 55.2926 114.22 54.4062 113.636C53.5199 113.053 52.482 112.761 51.2926 112.761C50.1032 112.761 49.0653 113.053 48.179 113.636C47.2926 114.22 46.6032 115.076 46.1108 116.205C45.6259 117.333 45.3835 118.72 45.3835 120.364C45.3835 122.008 45.6259 123.394 46.1108 124.523C46.6032 125.652 47.2926 126.508 48.179 127.091C49.0653 127.674 50.1032 127.966 51.2926 127.966C52.482 127.966 53.5199 127.674 54.4062 127.091C55.2926 126.508 55.9782 125.652 56.4631 124.523C56.9555 123.394 57.2017 122.008 57.2017 120.364ZM86.3693 116.875H81.392C81.3011 116.231 81.1155 115.659 80.8352 115.159C80.5549 114.652 80.1951 114.22 79.7557 113.864C79.3163 113.508 78.8087 113.235 78.233 113.045C77.6648 112.856 77.0473 112.761 76.3807 112.761C75.1761 112.761 74.1269 113.061 73.233 113.659C72.339 114.25 71.6458 115.114 71.1534 116.25C70.661 117.379 70.4148 118.75 70.4148 120.364C70.4148 122.023 70.661 123.417 71.1534 124.545C71.6534 125.674 72.3504 126.527 73.2443 127.102C74.1383 127.678 75.1723 127.966 76.3466 127.966C77.0057 127.966 77.6155 127.879 78.1761 127.705C78.7443 127.53 79.2481 127.277 79.6875 126.943C80.1269 126.602 80.4905 126.189 80.7784 125.705C81.0739 125.22 81.2784 124.667 81.392 124.045L86.3693 124.068C86.2405 125.136 85.9186 126.167 85.4034 127.159C84.8958 128.144 84.2102 129.027 83.3466 129.807C82.4905 130.58 81.4678 131.193 80.2784 131.648C79.0966 132.095 77.7595 132.318 76.267 132.318C74.1913 132.318 72.3352 131.848 70.6989 130.909C69.0701 129.97 67.7822 128.61 66.8352 126.83C65.8958 125.049 65.4261 122.894 65.4261 120.364C65.4261 117.826 65.9034 115.667 66.858 113.886C67.8125 112.106 69.108 110.75 70.7443 109.818C72.3807 108.879 74.2216 108.409 76.267 108.409C77.6155 108.409 78.8655 108.598 80.017 108.977C81.1761 109.356 82.2027 109.909 83.0966 110.636C83.9905 111.356 84.7178 112.239 85.2784 113.284C85.8466 114.33 86.2102 115.527 86.3693 116.875ZM94.0114 108.727L98.7045 116.659H98.8864L103.602 108.727H109.159L102.057 120.364L109.318 132H103.659L98.8864 124.057H98.7045L93.9318 132H88.2955L95.5795 120.364L88.4318 108.727H94.0114Z" fill="white"/>
<line x1="19" y1="31.5" x2="104" y2="31.5" stroke="black" stroke-width="5"/>
<line x1="19" y1="41.5" x2="104" y2="41.5" stroke="black" stroke-width="5"/>
<line x1="19" y1="51.5" x2="104" y2="51.5" stroke="black" stroke-width="5"/>
<line x1="19" y1="61.5" x2="104" y2="61.5" stroke="black" stroke-width="5"/>
<line x1="19" y1="71.5" x2="104" y2="71.5" stroke="black" stroke-width="5"/>
<line x1="19" y1="81.5" x2="104" y2="81.5" stroke="black" stroke-width="5"/>
</svg>
