<svg width="121" height="154" viewBox="0 0 121 154" fill="none" xmlns="http://www.w3.org/2000/svg">
<path d="M1 0H98.5727C98.8456 0 99.1067 0.111551 99.2953 0.308778L120.723 22.71C120.901 22.8961 121 23.1437 121 23.4013V153C121 153.552 120.552 154 120 154H1C0.447715 154 0 153.552 0 153V1C0 0.447715 0.447716 0 1 0Z" fill="white" stroke="black" stroke-width="6"/>
<path opacity="0.15" d="M120 22.5V44.5L98 22.5L120 22.5Z" fill="black" fill-opacity="0.33" stroke="black" stroke-opacity="0.33"/>
<rect x="48.5" y="108" width="70" height="44" fill="black" fill-opacity="0.06"/>
<path opacity="0.15" d="M48 112.5L48 152.5L8 112.5H48Z" fill="black" fill-opacity="0.33" stroke="black" stroke-opacity="0.33"/>
<path d="M98 22.5V0.5L120 22.5H98Z" fill="black" stroke="black"/>
<rect x="7.5" y="96" width="113" height="49" rx="1" fill="black"/>
<path d="M28.5227 132V108.727H37.7045C39.4697 108.727 40.9735 109.064 42.2159 109.739C43.4583 110.405 44.4053 111.333 45.0568 112.523C45.7159 113.705 46.0455 115.068 46.0455 116.614C46.0455 118.159 45.7121 119.523 45.0455 120.705C44.3788 121.886 43.4129 122.807 42.1477 123.466C40.8902 124.125 39.3674 124.455 37.5795 124.455H31.7273V120.511H36.7841C37.7311 120.511 38.5114 120.348 39.125 120.023C39.7462 119.689 40.2083 119.231 40.5114 118.648C40.822 118.057 40.9773 117.379 40.9773 116.614C40.9773 115.841 40.822 115.167 40.5114 114.591C40.2083 114.008 39.7462 113.557 39.125 113.239C38.5038 112.913 37.7159 112.75 36.7614 112.75H33.4432V132H28.5227ZM68.7074 108.727V132H64.4574L54.3324 117.352H54.1619V132H49.2415V108.727H53.5597L63.6051 123.364H63.8097V108.727H68.7074ZM88.2045 116.25C88.0455 115.697 87.822 115.208 87.5341 114.784C87.2462 114.352 86.8939 113.989 86.4773 113.693C86.0682 113.39 85.5985 113.159 85.0682 113C84.5455 112.841 83.9659 112.761 83.3295 112.761C82.1402 112.761 81.0947 113.057 80.1932 113.648C79.2992 114.239 78.6023 115.098 78.1023 116.227C77.6023 117.348 77.3523 118.72 77.3523 120.341C77.3523 121.962 77.5985 123.341 78.0909 124.477C78.5833 125.614 79.2803 126.481 80.1818 127.08C81.0833 127.67 82.1477 127.966 83.375 127.966C84.4886 127.966 85.4394 127.769 86.2273 127.375C87.0227 126.973 87.6288 126.409 88.0455 125.682C88.4697 124.955 88.6818 124.095 88.6818 123.102L89.6818 123.25H83.6818V119.545H93.4205V122.477C93.4205 124.523 92.9886 126.28 92.125 127.75C91.2614 129.212 90.072 130.341 88.5568 131.136C87.0417 131.924 85.3068 132.318 83.3523 132.318C81.1705 132.318 79.2538 131.837 77.6023 130.875C75.9508 129.905 74.6629 128.53 73.7386 126.75C72.822 124.962 72.3636 122.841 72.3636 120.386C72.3636 118.5 72.6364 116.818 73.1818 115.341C73.7348 113.856 74.5076 112.598 75.5 111.568C76.4924 110.538 77.6477 109.754 78.9659 109.216C80.2841 108.678 81.7121 108.409 83.25 108.409C84.5682 108.409 85.7955 108.602 86.9318 108.989C88.0682 109.367 89.0758 109.905 89.9545 110.602C90.8409 111.299 91.5644 112.129 92.125 113.091C92.6856 114.045 93.0455 115.098 93.2045 116.25H88.2045Z" fill="white"/>
<rect x="19.5" y="30.5" width="80" height="55" fill="#83CAFE" stroke="black" stroke-width="5"/>
<path d="M38.4586 64.5L22 78.5V84.5H98L73.7962 45.5L56.8535 76.5L38.4586 64.5Z" fill="#48C12A" stroke="black"/>
<circle cx="50.5" cy="54.5" r="6.5" fill="#E14141" stroke="black" stroke-width="2"/>
</svg>
