<svg width="121" height="154" viewBox="0 0 121 154" fill="none" xmlns="http://www.w3.org/2000/svg">
<path d="M1 0H98.5727C98.8456 0 99.1067 0.111551 99.2953 0.308778L120.723 22.71C120.901 22.8961 121 23.1437 121 23.4013V153C121 153.552 120.552 154 120 154H1C0.447715 154 0 153.552 0 153V1C0 0.447715 0.447716 0 1 0Z" fill="white" stroke="black" stroke-width="6"/>
<path opacity="0.15" d="M120 22.5V44.5L98 22.5L120 22.5Z" fill="black" fill-opacity="0.33" stroke="black" stroke-opacity="0.33"/>
<rect x="48.5" y="108" width="70" height="44" fill="black" fill-opacity="0.06"/>
<path opacity="0.15" d="M48 112.5L48 152.5L8 112.5H48Z" fill="black" fill-opacity="0.33" stroke="black" stroke-opacity="0.33"/>
<path d="M98 22.5V0.5L120 22.5H98Z" fill="black" stroke="black"/>
<rect x="7.5" y="63" width="113" height="49" rx="1" fill="black"/>
<path d="M24.5227 99V75.7273H33.7045C35.4697 75.7273 36.9735 76.0644 38.2159 76.7386C39.4583 77.4053 40.4053 78.3333 41.0568 79.5227C41.7159 80.7045 42.0455 82.0682 42.0455 83.6136C42.0455 85.1591 41.7121 86.5227 41.0455 87.7045C40.3788 88.8864 39.4129 89.8068 38.1477 90.4659C36.8902 91.125 35.3674 91.4545 33.5795 91.4545H27.7273V87.5114H32.7841C33.7311 87.5114 34.5114 87.3485 35.125 87.0227C35.7462 86.6894 36.2083 86.2311 36.5114 85.6477C36.822 85.0568 36.9773 84.3788 36.9773 83.6136C36.9773 82.8409 36.822 82.1667 36.5114 81.5909C36.2083 81.0076 35.7462 80.5568 35.125 80.2386C34.5038 79.9129 33.7159 79.75 32.7614 79.75H29.4432V99H24.5227ZM64.7074 75.7273V99H60.4574L50.3324 84.3523H50.1619V99H45.2415V75.7273H49.5597L59.6051 90.3636H59.8097V75.7273H64.7074ZM84.2045 83.25C84.0455 82.697 83.822 82.2083 83.5341 81.7841C83.2462 81.3523 82.8939 80.9886 82.4773 80.6932C82.0682 80.3902 81.5985 80.1591 81.0682 80C80.5455 79.8409 79.9659 79.7614 79.3295 79.7614C78.1402 79.7614 77.0947 80.0568 76.1932 80.6477C75.2992 81.2386 74.6023 82.0985 74.1023 83.2273C73.6023 84.3485 73.3523 85.7197 73.3523 87.3409C73.3523 88.9621 73.5985 90.3409 74.0909 91.4773C74.5833 92.6136 75.2803 93.4811 76.1818 94.0795C77.0833 94.6705 78.1477 94.9659 79.375 94.9659C80.4886 94.9659 81.4394 94.7689 82.2273 94.375C83.0227 93.9735 83.6288 93.4091 84.0455 92.6818C84.4697 91.9545 84.6818 91.0947 84.6818 90.1023L85.6818 90.25H79.6818V86.5455H89.4205V89.4773C89.4205 91.5227 88.9886 93.2803 88.125 94.75C87.2614 96.2121 86.072 97.3409 84.5568 98.1364C83.0417 98.9242 81.3068 99.3182 79.3523 99.3182C77.1705 99.3182 75.2538 98.8371 73.6023 97.875C71.9508 96.9053 70.6629 95.5303 69.7386 93.75C68.822 91.9621 68.3636 89.8409 68.3636 87.3864C68.3636 85.5 68.6364 83.8182 69.1818 82.3409C69.7348 80.8561 70.5076 79.5985 71.5 78.5682C72.4924 77.5379 73.6477 76.7538 74.9659 76.2159C76.2841 75.678 77.7121 75.4091 79.25 75.4091C80.5682 75.4091 81.7955 75.6023 82.9318 75.9886C84.0682 76.3674 85.0758 76.9053 85.9545 77.6023C86.8409 78.2992 87.5644 79.1288 88.125 80.0909C88.6856 81.0455 89.0455 82.0985 89.2045 83.25H84.2045Z" fill="white"/>
</svg>
