<svg width="121" height="154" viewBox="0 0 121 154" fill="none" xmlns="http://www.w3.org/2000/svg">
<path d="M1 0H98.5727C98.8456 0 99.1067 0.111551 99.2953 0.308778L120.723 22.71C120.901 22.8961 121 23.1437 121 23.4013V153C121 153.552 120.552 154 120 154H1C0.447715 154 0 153.552 0 153V1C0 0.447715 0.447716 0 1 0Z" fill="white" stroke="black" stroke-width="6"/>
<path opacity="0.15" d="M120 22.5V44.5L98 22.5L120 22.5Z" fill="black" fill-opacity="0.33" stroke="black" stroke-opacity="0.33"/>
<rect x="48.5" y="108" width="70" height="44" fill="black" fill-opacity="0.06"/>
<path opacity="0.15" d="M48 112.5L48 152.5L8 112.5H48Z" fill="black" fill-opacity="0.33" stroke="black" stroke-opacity="0.33"/>
<path d="M98 22.5V0.5L120 22.5H98Z" fill="black" stroke="black"/>
<rect x="7.5" y="63" width="113" height="49" rx="1" fill="black"/>
<path d="M37.1477 82.4205C37.0568 81.5038 36.6667 80.7917 35.9773 80.2841C35.2879 79.7765 34.3523 79.5227 33.1705 79.5227C32.3674 79.5227 31.6894 79.6364 31.1364 79.8636C30.5833 80.0833 30.1591 80.3902 29.8636 80.7841C29.5758 81.178 29.4318 81.625 29.4318 82.125C29.4167 82.5417 29.5038 82.9053 29.6932 83.2159C29.8902 83.5265 30.1591 83.7955 30.5 84.0227C30.8409 84.2424 31.2348 84.4356 31.6818 84.6023C32.1288 84.7614 32.6061 84.8977 33.1136 85.0114L35.2045 85.5114C36.2197 85.7386 37.1515 86.0417 38 86.4205C38.8485 86.7992 39.5833 87.2652 40.2045 87.8182C40.8258 88.3712 41.3068 89.0227 41.6477 89.7727C41.9962 90.5227 42.1742 91.3826 42.1818 92.3523C42.1742 93.7765 41.8106 95.0114 41.0909 96.0568C40.3788 97.0947 39.3485 97.9015 38 98.4773C36.6591 99.0455 35.0417 99.3295 33.1477 99.3295C31.2689 99.3295 29.6326 99.0417 28.2386 98.4659C26.8523 97.8902 25.7689 97.0379 24.9886 95.9091C24.2159 94.7727 23.8106 93.3674 23.7727 91.6932H28.5341C28.5871 92.4735 28.8106 93.125 29.2045 93.6477C29.6061 94.1629 30.1402 94.553 30.8068 94.8182C31.4811 95.0758 32.2424 95.2045 33.0909 95.2045C33.9242 95.2045 34.6477 95.0833 35.2614 94.8409C35.8826 94.5985 36.3636 94.2614 36.7045 93.8295C37.0455 93.3977 37.2159 92.9015 37.2159 92.3409C37.2159 91.8182 37.0606 91.3788 36.75 91.0227C36.447 90.6667 36 90.3636 35.4091 90.1136C34.8258 89.8636 34.1098 89.6364 33.2614 89.4318L30.7273 88.7955C28.7652 88.3182 27.2159 87.572 26.0795 86.5568C24.9432 85.5417 24.3788 84.1742 24.3864 82.4545C24.3788 81.0455 24.7538 79.8144 25.5114 78.7614C26.2765 77.7083 27.3258 76.8864 28.6591 76.2955C29.9924 75.7045 31.5076 75.4091 33.2045 75.4091C34.9318 75.4091 36.4394 75.7045 37.7273 76.2955C39.0227 76.8864 40.0303 77.7083 40.75 78.7614C41.4697 79.8144 41.8409 81.0341 41.8636 82.4205H37.1477ZM44.6051 79.7841V75.7273H63.7188V79.7841H56.5938V99H51.7301V79.7841H44.6051ZM68.0341 99H62.7614L70.7955 75.7273H77.1364L85.1591 99H79.8864L74.0568 81.0455H73.875L68.0341 99ZM67.7045 89.8523H80.1591V93.6932H67.7045V89.8523Z" fill="white"/>
</svg>
