<svg width="121" height="154" viewBox="0 0 121 154" fill="none" xmlns="http://www.w3.org/2000/svg">
<path d="M1 0H98.5727C98.8456 0 99.1067 0.111551 99.2953 0.308778L120.723 22.71C120.901 22.8961 121 23.1437 121 23.4013V153C121 153.552 120.552 154 120 154H1C0.447715 154 0 153.552 0 153V1C0 0.447715 0.447716 0 1 0Z" fill="white" stroke="black" stroke-width="6"/>
<path opacity="0.15" d="M120 22.5V44.5L98 22.5L120 22.5Z" fill="black" fill-opacity="0.33" stroke="black" stroke-opacity="0.33"/>
<rect x="48.5" y="108" width="70" height="44" fill="black" fill-opacity="0.06"/>
<path opacity="0.15" d="M48 112.5L48 152.5L8 112.5H48Z" fill="black" fill-opacity="0.33" stroke="black" stroke-opacity="0.33"/>
<path d="M98 22.5V0.5L120 22.5H98Z" fill="black" stroke="black"/>
<rect x="7.5" y="63" width="113" height="49" rx="1" fill="black"/>
<path d="M38.1477 82.4205C38.0568 81.5038 37.6667 80.7917 36.9773 80.2841C36.2879 79.7765 35.3523 79.5227 34.1705 79.5227C33.3674 79.5227 32.6894 79.6364 32.1364 79.8636C31.5833 80.0833 31.1591 80.3902 30.8636 80.7841C30.5758 81.178 30.4318 81.625 30.4318 82.125C30.4167 82.5417 30.5038 82.9053 30.6932 83.2159C30.8902 83.5265 31.1591 83.7955 31.5 84.0227C31.8409 84.2424 32.2348 84.4356 32.6818 84.6023C33.1288 84.7614 33.6061 84.8977 34.1136 85.0114L36.2045 85.5114C37.2197 85.7386 38.1515 86.0417 39 86.4205C39.8485 86.7992 40.5833 87.2652 41.2045 87.8182C41.8258 88.3712 42.3068 89.0227 42.6477 89.7727C42.9962 90.5227 43.1742 91.3826 43.1818 92.3523C43.1742 93.7765 42.8106 95.0114 42.0909 96.0568C41.3788 97.0947 40.3485 97.9015 39 98.4773C37.6591 99.0455 36.0417 99.3295 34.1477 99.3295C32.2689 99.3295 30.6326 99.0417 29.2386 98.4659C27.8523 97.8902 26.7689 97.0379 25.9886 95.9091C25.2159 94.7727 24.8106 93.3674 24.7727 91.6932H29.5341C29.5871 92.4735 29.8106 93.125 30.2045 93.6477C30.6061 94.1629 31.1402 94.553 31.8068 94.8182C32.4811 95.0758 33.2424 95.2045 34.0909 95.2045C34.9242 95.2045 35.6477 95.0833 36.2614 94.8409C36.8826 94.5985 37.3636 94.2614 37.7045 93.8295C38.0455 93.3977 38.2159 92.9015 38.2159 92.3409C38.2159 91.8182 38.0606 91.3788 37.75 91.0227C37.447 90.6667 37 90.3636 36.4091 90.1136C35.8258 89.8636 35.1098 89.6364 34.2614 89.4318L31.7273 88.7955C29.7652 88.3182 28.2159 87.572 27.0795 86.5568C25.9432 85.5417 25.3788 84.1742 25.3864 82.4545C25.3788 81.0455 25.7538 79.8144 26.5114 78.7614C27.2765 77.7083 28.3258 76.8864 29.6591 76.2955C30.9924 75.7045 32.5076 75.4091 34.2045 75.4091C35.9318 75.4091 37.4394 75.7045 38.7273 76.2955C40.0227 76.8864 41.0303 77.7083 41.75 78.7614C42.4697 79.8144 42.8409 81.0341 42.8636 82.4205H38.1477ZM50.696 75.7273L56.321 93.4091H56.5369L62.1733 75.7273H67.6278L59.6051 99H53.2642L45.2301 75.7273H50.696ZM84.5483 83.25C84.3892 82.697 84.1657 82.2083 83.8778 81.7841C83.59 81.3523 83.2377 80.9886 82.821 80.6932C82.4119 80.3902 81.9422 80.1591 81.4119 80C80.8892 79.8409 80.3097 79.7614 79.6733 79.7614C78.4839 79.7614 77.4384 80.0568 76.5369 80.6477C75.643 81.2386 74.946 82.0985 74.446 83.2273C73.946 84.3485 73.696 85.7197 73.696 87.3409C73.696 88.9621 73.9422 90.3409 74.4347 91.4773C74.9271 92.6136 75.6241 93.4811 76.5256 94.0795C77.4271 94.6705 78.4915 94.9659 79.7188 94.9659C80.8324 94.9659 81.7831 94.7689 82.571 94.375C83.3665 93.9735 83.9725 93.4091 84.3892 92.6818C84.8134 91.9545 85.0256 91.0947 85.0256 90.1023L86.0256 90.25H80.0256V86.5455H89.7642V89.4773C89.7642 91.5227 89.3324 93.2803 88.4688 94.75C87.6051 96.2121 86.4157 97.3409 84.9006 98.1364C83.3854 98.9242 81.6506 99.3182 79.696 99.3182C77.5142 99.3182 75.5975 98.8371 73.946 97.875C72.2945 96.9053 71.0066 95.5303 70.0824 93.75C69.1657 91.9621 68.7074 89.8409 68.7074 87.3864C68.7074 85.5 68.9801 83.8182 69.5256 82.3409C70.0786 80.8561 70.8513 79.5985 71.8438 78.5682C72.8362 77.5379 73.9915 76.7538 75.3097 76.2159C76.6278 75.678 78.0559 75.4091 79.5938 75.4091C80.9119 75.4091 82.1392 75.6023 83.2756 75.9886C84.4119 76.3674 85.4195 76.9053 86.2983 77.6023C87.1847 78.2992 87.9081 79.1288 88.4688 80.0909C89.0294 81.0455 89.3892 82.0985 89.5483 83.25H84.5483Z" fill="white"/>
</svg>
