<svg width="121" height="154" viewBox="0 0 121 154" fill="none" xmlns="http://www.w3.org/2000/svg">
<path d="M1 0H98.5727C98.8456 0 99.1067 0.111551 99.2953 0.308778L120.723 22.71C120.901 22.8961 121 23.1437 121 23.4013V153C121 153.552 120.552 154 120 154H1C0.447715 154 0 153.552 0 153V1C0 0.447715 0.447716 0 1 0Z" fill="white" stroke="black" stroke-width="6"/>
<path opacity="0.15" d="M120 22.5V44.5L98 22.5L120 22.5Z" fill="black" fill-opacity="0.33" stroke="black" stroke-opacity="0.33"/>
<rect x="48.5" y="108" width="70" height="44" fill="black" fill-opacity="0.06"/>
<path opacity="0.15" d="M48 112.5L48 152.5L8 112.5H48Z" fill="black" fill-opacity="0.33" stroke="black" stroke-opacity="0.33"/>
<path d="M98 22.5V0.5L120 22.5H98Z" fill="black" stroke="black"/>
<rect x="7.5" y="96" width="113" height="49" rx="1" fill="black"/>
<path d="M41.1477 115.42C41.0568 114.504 40.6667 113.792 39.9773 113.284C39.2879 112.777 38.3523 112.523 37.1705 112.523C36.3674 112.523 35.6894 112.636 35.1364 112.864C34.5833 113.083 34.1591 113.39 33.8636 113.784C33.5758 114.178 33.4318 114.625 33.4318 115.125C33.4167 115.542 33.5038 115.905 33.6932 116.216C33.8902 116.527 34.1591 116.795 34.5 117.023C34.8409 117.242 35.2348 117.436 35.6818 117.602C36.1288 117.761 36.6061 117.898 37.1136 118.011L39.2045 118.511C40.2197 118.739 41.1515 119.042 42 119.42C42.8485 119.799 43.5833 120.265 44.2045 120.818C44.8258 121.371 45.3068 122.023 45.6477 122.773C45.9962 123.523 46.1742 124.383 46.1818 125.352C46.1742 126.777 45.8106 128.011 45.0909 129.057C44.3788 130.095 43.3485 130.902 42 131.477C40.6591 132.045 39.0417 132.33 37.1477 132.33C35.2689 132.33 33.6326 132.042 32.2386 131.466C30.8523 130.89 29.7689 130.038 28.9886 128.909C28.2159 127.773 27.8106 126.367 27.7727 124.693H32.5341C32.5871 125.473 32.8106 126.125 33.2045 126.648C33.6061 127.163 34.1402 127.553 34.8068 127.818C35.4811 128.076 36.2424 128.205 37.0909 128.205C37.9242 128.205 38.6477 128.083 39.2614 127.841C39.8826 127.598 40.3636 127.261 40.7045 126.83C41.0455 126.398 41.2159 125.902 41.2159 125.341C41.2159 124.818 41.0606 124.379 40.75 124.023C40.447 123.667 40 123.364 39.4091 123.114C38.8258 122.864 38.1098 122.636 37.2614 122.432L34.7273 121.795C32.7652 121.318 31.2159 120.572 30.0795 119.557C28.9432 118.542 28.3788 117.174 28.3864 115.455C28.3788 114.045 28.7538 112.814 29.5114 111.761C30.2765 110.708 31.3258 109.886 32.6591 109.295C33.9924 108.705 35.5076 108.409 37.2045 108.409C38.9318 108.409 40.4394 108.705 41.7273 109.295C43.0227 109.886 44.0303 110.708 44.75 111.761C45.4697 112.814 45.8409 114.034 45.8636 115.42H41.1477ZM53.696 108.727L59.321 126.409H59.5369L65.1733 108.727H70.6278L62.6051 132H56.2642L48.2301 108.727H53.696ZM87.5483 116.25C87.3892 115.697 87.1657 115.208 86.8778 114.784C86.59 114.352 86.2377 113.989 85.821 113.693C85.4119 113.39 84.9422 113.159 84.4119 113C83.8892 112.841 83.3097 112.761 82.6733 112.761C81.4839 112.761 80.4384 113.057 79.5369 113.648C78.643 114.239 77.946 115.098 77.446 116.227C76.946 117.348 76.696 118.72 76.696 120.341C76.696 121.962 76.9422 123.341 77.4347 124.477C77.9271 125.614 78.6241 126.481 79.5256 127.08C80.4271 127.67 81.4915 127.966 82.7188 127.966C83.8324 127.966 84.7831 127.769 85.571 127.375C86.3665 126.973 86.9725 126.409 87.3892 125.682C87.8134 124.955 88.0256 124.095 88.0256 123.102L89.0256 123.25H83.0256V119.545H92.7642V122.477C92.7642 124.523 92.3324 126.28 91.4688 127.75C90.6051 129.212 89.4157 130.341 87.9006 131.136C86.3854 131.924 84.6506 132.318 82.696 132.318C80.5142 132.318 78.5975 131.837 76.946 130.875C75.2945 129.905 74.0066 128.53 73.0824 126.75C72.1657 124.962 71.7074 122.841 71.7074 120.386C71.7074 118.5 71.9801 116.818 72.5256 115.341C73.0786 113.856 73.8513 112.598 74.8438 111.568C75.8362 110.538 76.9915 109.754 78.3097 109.216C79.6278 108.678 81.0559 108.409 82.5938 108.409C83.9119 108.409 85.1392 108.602 86.2756 108.989C87.4119 109.367 88.4195 109.905 89.2983 110.602C90.1847 111.299 90.9081 112.129 91.4688 113.091C92.0294 114.045 92.3892 115.098 92.5483 116.25H87.5483Z" fill="white"/>
<rect x="19.5" y="30.5" width="80" height="55" fill="#83CAFE" stroke="black" stroke-width="5"/>
<path d="M38.4586 64.5L22 78.5V84.5H98L73.7962 45.5L56.8535 76.5L38.4586 64.5Z" fill="#48C12A" stroke="black"/>
<circle cx="50.5" cy="54.5" r="6.5" fill="#E14141" stroke="black" stroke-width="2"/>
</svg>
