<svg width="122" height="154" viewBox="0 0 122 154" fill="none" xmlns="http://www.w3.org/2000/svg">
<path d="M1.5 0H99.0727C99.3456 0 99.6067 0.111551 99.7953 0.308778L121.223 22.71C121.401 22.8961 121.5 23.1437 121.5 23.4013V153C121.5 153.552 121.052 154 120.5 154H1.5C0.947715 154 0.5 153.552 0.5 153V1C0.5 0.447715 0.947716 0 1.5 0Z" fill="white" stroke="black" stroke-width="6"/>
<path opacity="0.15" d="M120.5 22.5V44.5L98.5 22.5L120.5 22.5Z" fill="black" fill-opacity="0.33" stroke="black" stroke-opacity="0.33"/>
<rect x="49" y="108" width="70" height="44" fill="black" fill-opacity="0.06"/>
<path opacity="0.15" d="M48.5 112.5L48.5 152.5L8.5 112.5H48.5Z" fill="black" fill-opacity="0.33" stroke="black" stroke-opacity="0.33"/>
<path d="M98.5 22.5V0.5L120.5 22.5H98.5Z" fill="black" stroke="black"/>
<rect x="8" y="63" width="113" height="49" rx="1" fill="black"/>
<path d="M24.6364 75.7273L29.3295 83.6591H29.5114L34.2273 75.7273H39.7841L32.6818 87.3636L39.9432 99H34.2841L29.5114 91.0568H29.3295L24.5568 99H18.9205L26.2045 87.3636L19.0568 75.7273H24.6364ZM42.8977 99V75.7273H47.8182V94.9432H57.7955V99H42.8977ZM73.679 82.4205C73.5881 81.5038 73.1979 80.7917 72.5085 80.2841C71.8191 79.7765 70.8835 79.5227 69.7017 79.5227C68.8987 79.5227 68.2206 79.6364 67.6676 79.8636C67.1146 80.0833 66.6903 80.3902 66.3949 80.7841C66.107 81.178 65.9631 81.625 65.9631 82.125C65.9479 82.5417 66.035 82.9053 66.2244 83.2159C66.4214 83.5265 66.6903 83.7955 67.0312 84.0227C67.3722 84.2424 67.7661 84.4356 68.2131 84.6023C68.66 84.7614 69.1373 84.8977 69.6449 85.0114L71.7358 85.5114C72.7509 85.7386 73.6828 86.0417 74.5312 86.4205C75.3797 86.7992 76.1146 87.2652 76.7358 87.8182C77.357 88.3712 77.8381 89.0227 78.179 89.7727C78.5275 90.5227 78.7055 91.3826 78.7131 92.3523C78.7055 93.7765 78.3419 95.0114 77.6222 96.0568C76.91 97.0947 75.8797 97.9015 74.5312 98.4773C73.1903 99.0455 71.5729 99.3295 69.679 99.3295C67.8002 99.3295 66.1638 99.0417 64.7699 98.4659C63.3835 97.8902 62.3002 97.0379 61.5199 95.9091C60.7472 94.7727 60.3419 93.3674 60.304 91.6932H65.0653C65.1184 92.4735 65.3419 93.125 65.7358 93.6477C66.1373 94.1629 66.6714 94.553 67.3381 94.8182C68.0123 95.0758 68.7737 95.2045 69.6222 95.2045C70.4555 95.2045 71.179 95.0833 71.7926 94.8409C72.4138 94.5985 72.8949 94.2614 73.2358 93.8295C73.5767 93.3977 73.7472 92.9015 73.7472 92.3409C73.7472 91.8182 73.5919 91.3788 73.2812 91.0227C72.9782 90.6667 72.5313 90.3636 71.9403 90.1136C71.357 89.8636 70.6411 89.6364 69.7926 89.4318L67.2585 88.7955C65.2964 88.3182 63.7472 87.572 62.6108 86.5568C61.4744 85.5417 60.91 84.1742 60.9176 82.4545C60.91 81.0455 61.285 79.8144 62.0426 78.7614C62.8078 77.7083 63.857 76.8864 65.1903 76.2955C66.5237 75.7045 68.0388 75.4091 69.7358 75.4091C71.4631 75.4091 72.9706 75.7045 74.2585 76.2955C75.554 76.8864 76.5616 77.7083 77.2812 78.7614C78.0009 79.8144 78.3722 81.0341 78.3949 82.4205H73.679ZM86.6364 75.7273L91.3295 83.6591H91.5114L96.2273 75.7273H101.784L94.6818 87.3636L101.943 99H96.2841L91.5114 91.0568H91.3295L86.5568 99H80.9205L88.2045 87.3636L81.0568 75.7273H86.6364Z" fill="white"/>
</svg>
