<svg width="122" height="154" viewBox="0 0 122 154" fill="none" xmlns="http://www.w3.org/2000/svg">
<path d="M1.5 0H99.0727C99.3456 0 99.6067 0.111551 99.7953 0.308778L121.223 22.71C121.401 22.8961 121.5 23.1437 121.5 23.4013V153C121.5 153.552 121.052 154 120.5 154H1.5C0.947715 154 0.5 153.552 0.5 153V1C0.5 0.447715 0.947716 0 1.5 0Z" fill="white" stroke="black" stroke-width="6"/>
<path opacity="0.15" d="M120.5 22.5V44.5L98.5 22.5L120.5 22.5Z" fill="black" fill-opacity="0.33" stroke="black" stroke-opacity="0.33"/>
<rect x="49" y="108" width="70" height="44" fill="black" fill-opacity="0.06"/>
<path opacity="0.15" d="M48.5 112.5L48.5 152.5L8.5 112.5H48.5Z" fill="black" fill-opacity="0.33" stroke="black" stroke-opacity="0.33"/>
<path d="M98.5 22.5V0.5L120.5 22.5H98.5Z" fill="black" stroke="black"/>
<rect x="9" y="96" width="113" height="49" rx="1" fill="black"/>
<path d="M25.6364 108.727L30.3295 116.659H30.5114L35.2273 108.727H40.7841L33.6818 120.364L40.9432 132H35.2841L30.5114 124.057H30.3295L25.5568 132H19.9205L27.2045 120.364L20.0568 108.727H25.6364ZM43.8977 132V108.727H48.8182V127.943H58.7955V132H43.8977ZM74.679 115.42C74.5881 114.504 74.1979 113.792 73.5085 113.284C72.8191 112.777 71.8835 112.523 70.7017 112.523C69.8987 112.523 69.2206 112.636 68.6676 112.864C68.1146 113.083 67.6903 113.39 67.3949 113.784C67.107 114.178 66.9631 114.625 66.9631 115.125C66.9479 115.542 67.035 115.905 67.2244 116.216C67.4214 116.527 67.6903 116.795 68.0312 117.023C68.3722 117.242 68.7661 117.436 69.2131 117.602C69.66 117.761 70.1373 117.898 70.6449 118.011L72.7358 118.511C73.7509 118.739 74.6828 119.042 75.5312 119.42C76.3797 119.799 77.1146 120.265 77.7358 120.818C78.357 121.371 78.8381 122.023 79.179 122.773C79.5275 123.523 79.7055 124.383 79.7131 125.352C79.7055 126.777 79.3419 128.011 78.6222 129.057C77.91 130.095 76.8797 130.902 75.5312 131.477C74.1903 132.045 72.5729 132.33 70.679 132.33C68.8002 132.33 67.1638 132.042 65.7699 131.466C64.3835 130.89 63.3002 130.038 62.5199 128.909C61.7472 127.773 61.3419 126.367 61.304 124.693H66.0653C66.1184 125.473 66.3419 126.125 66.7358 126.648C67.1373 127.163 67.6714 127.553 68.3381 127.818C69.0123 128.076 69.7737 128.205 70.6222 128.205C71.4555 128.205 72.179 128.083 72.7926 127.841C73.4138 127.598 73.8949 127.261 74.2358 126.83C74.5767 126.398 74.7472 125.902 74.7472 125.341C74.7472 124.818 74.5919 124.379 74.2812 124.023C73.9782 123.667 73.5313 123.364 72.9403 123.114C72.357 122.864 71.6411 122.636 70.7926 122.432L68.2585 121.795C66.2964 121.318 64.7472 120.572 63.6108 119.557C62.4744 118.542 61.91 117.174 61.9176 115.455C61.91 114.045 62.285 112.814 63.0426 111.761C63.8078 110.708 64.857 109.886 66.1903 109.295C67.5237 108.705 69.0388 108.409 70.7358 108.409C72.4631 108.409 73.9706 108.705 75.2585 109.295C76.554 109.886 77.5616 110.708 78.2812 111.761C79.0009 112.814 79.3722 114.034 79.3949 115.42H74.679ZM87.6364 108.727L92.3295 116.659H92.5114L97.2273 108.727H102.784L95.6818 120.364L102.943 132H97.2841L92.5114 124.057H92.3295L87.5568 132H81.9205L89.2045 120.364L82.0568 108.727H87.6364Z" fill="white"/>
<rect x="21.5" y="31.5" width="80" height="55" stroke="black" stroke-width="5"/>
<rect x="47.5" y="31.5" width="27" height="55" stroke="black" stroke-width="5"/>
<rect x="21.5" y="49.5" width="80" height="20" stroke="black" stroke-width="5"/>
</svg>
